<?xml version="1.0" standalone="no"?>
<!DOCTYPE svg PUBLIC "-//W3C//DTD SVG 20010904//EN"
 "http://www.w3.org/TR/2001/REC-SVG-20010904/DTD/svg10.dtd">
<svg version="1.0" xmlns="http://www.w3.org/2000/svg"
 width="1024.000000pt" height="1024.000000pt" viewBox="0 0 1024.000000 1024.000000"
 preserveAspectRatio="xMidYMid meet">
<metadata>
Created by potrace 1.11, written by Peter Selinger 2001-2013
</metadata>
<g transform="translate(0.000000,1024.000000) scale(0.100000,-0.100000)"
fill="#000000" stroke="none">
<path d="M4785 10234 c-22 -2 -92 -9 -155 -14 -1818 -163 -3446 -1337 -4195
-3025 -222 -500 -351 -993 -417 -1585 -17 -155 -17 -825 0 -980 43 -387 106
-699 208 -1029 436 -1405 1470 -2567 2819 -3166 500 -222 993 -351 1585 -417
155 -17 825 -17 980 0 767 85 1425 294 2042 648 1379 792 2312 2156 2537 3710
41 280 46 363 46 744 0 381 -5 464 -46 744 -250 1731 -1388 3228 -2994 3941
-495 220 -986 350 -1570 416 -96 10 -757 21 -840 13z m2535 -2244 c647 -34
1057 -168 1463 -477 133 -102 378 -341 484 -473 302 -375 494 -827 570 -1345
24 -167 24 -561 -1 -730 -79 -539 -259 -978 -552 -1345 -89 -111 -314 -335
-434 -431 -265 -214 -550 -351 -874 -423 -263 -58 -312 -61 -1166 -61 -729 0
-791 1 -865 19 -165 38 -298 118 -431 259 -161 171 -224 330 -224 567 0 241
69 413 234 588 113 118 238 192 400 234 78 20 110 21 851 27 838 7 781 3 903
65 117 59 273 247 341 410 183 441 91 966 -223 1264 -77 72 -146 115 -246 148
-53 18 -163 19 -3075 24 l-3020 5 -75 23 c-157 49 -284 136 -421 289 -78 88
-152 235 -175 352 -22 114 -15 314 16 421 69 242 281 468 516 551 139 49 14
47 3004 48 1782 1 2876 -3 3000 -9z m-3968 -2321 c237 -40 445 -179 573 -384
65 -104 1710 -3777 1734 -3873 83 -324 15 -596 -200 -798 -123 -115 -260 -197
-404 -240 -80 -24 -106 -27 -235 -27 -172 -1 -253 17 -395 87 -108 53 -204
137 -268 234 -25 37 -119 231 -210 432 -1048 2317 -1543 3414 -1559 3460 -74
214 -57 444 51 665 170 346 510 511 913 444z"/>
</g>
</svg>
